<svg id="Ebene_1" data-name="Ebene 1" xmlns="http://www.w3.org/2000/svg" viewBox="0 0 112.5 112.5"><path d="M141.6,85.9a56.3,56.3,0,1,0,56.3,56.2A56.2,56.2,0,0,0,141.6,85.9Zm0,106.5A50.3,50.3,0,1,1,192,142.1,50.3,50.3,0,0,1,141.6,192.4Z" transform="translate(-85.4 -85.9)" fill="#fff"/><path d="M130.8,116.1a6.4,6.4,0,0,1,2.8-5.1,11.8,11.8,0,0,1,7.4-2.1,22.1,22.1,0,0,1,5.3.7,7.6,7.6,0,0,1,5.3,3.6,6.1,6.1,0,0,1,.8,3,5.6,5.6,0,0,1-2.8,5,16,16,0,0,1-3.5,1.5,20,20,0,0,1-4.5.5c-3.5,0-6.2-.7-8-2A6.4,6.4,0,0,1,130.8,116.1Zm1.1,51V125.9h4.9a59,59,0,0,0,9.1-.8l5.4-.9v42.9Z" transform="translate(-85.4 -85.9)" fill="#fff"/></svg>